<svg width="83" height="83" viewBox="0 0 83 83" fill="none" xmlns="http://www.w3.org/2000/svg">
<path fill-rule="evenodd" clip-rule="evenodd" d="M41.5 0C18.5712 0 0 18.5713 0 41.5C0 59.8638 11.8794 75.3744 28.3756 80.8731C30.4506 81.2363 31.2287 79.9913 31.2287 78.9019C31.2287 77.9163 31.1769 74.6481 31.1769 71.1725C20.75 73.0919 18.0525 68.6306 17.2225 66.2963C16.7556 65.1031 14.7325 61.42 12.9687 60.4344C11.5162 59.6563 9.44125 57.7369 12.9169 57.685C16.185 57.6331 18.5194 60.6938 19.2975 61.9388C23.0325 68.2156 28.9981 66.4519 31.3844 65.3625C31.7475 62.665 32.8369 60.8494 34.03 59.8119C24.7962 58.7744 15.1475 55.195 15.1475 39.3213C15.1475 34.8081 16.7556 31.0731 19.4013 28.1681C18.9863 27.1306 17.5337 22.8769 19.8162 17.1706C19.8162 17.1706 23.2919 16.0813 31.2287 21.4244C34.5487 20.4906 38.0762 20.0238 41.6037 20.0238C45.1312 20.0238 48.6587 20.4906 51.9787 21.4244C59.9156 16.0294 63.3912 17.1706 63.3912 17.1706C65.6737 22.8769 64.2213 27.1306 63.8063 28.1681C66.4519 31.0731 68.06 34.7563 68.06 39.3213C68.06 55.2469 58.3594 58.7744 49.1256 59.8119C50.63 61.1088 51.9269 63.5988 51.9269 67.4894C51.9269 73.04 51.875 77.5013 51.875 78.9019C51.875 79.9913 52.6531 81.2881 54.7281 80.8731C62.9665 78.0917 70.1252 72.7968 75.1968 65.7338C80.2684 58.6708 82.9975 50.1952 83 41.5C83 18.5713 64.4287 0 41.5 0Z" fill="#111111"/>
</svg>
